name D:\+GitRepos+\flash-running\Simulations\OCP\..\results\predictiveSim\predictiveSim_11-Nov-2020_kinematics.mot
datacolumns 32
datarows 13
range 0.00000000 0.07078466
endheader
time	pelvis_tilt	pelvis_list	pelvis_rotation	pelvis_tx	pelvis_ty	pelvis_tz	hip_flexion_l	hip_adduction_l	hip_rotation_l	hip_flexion_r	hip_adduction_r	hip_rotation_r	knee_angle_l	knee_angle_r	ankle_angle_l	ankle_angle_r	subtalar_angle_l	subtalar_angle_r	lumbar_extension	lumbar_bending	lumbar_rotation	arm_flex_l	arm_add_l	arm_rot_l	arm_flex_r	arm_add_r	arm_rot_r	elbow_flex_l	elbow_flex_r	pro_sup_l	pro_sup_r	
          0.00000000	        -11.60564293	         -0.27286003	         -1.66083789	          0.00000000	          0.98737482	          0.00793027	         38.36144101	          7.46362538	          9.42610153	         24.93789594	          6.36047939	         -0.21039528	        -61.56000366	        -15.93342985	         -6.61369105	         -9.65449006	          3.85674677	          8.47235070	         -2.04459277	          1.61038229	         -0.44925308	         -9.78578462	        -10.85776816	         -2.24292258	         -0.64284168	          3.09534063	        -11.92908198	         66.28422171	        149.03977631	         86.51662706	         86.51662706	
          0.00589872	        -11.32248037	         -0.24302136	         -1.71293845	          0.01992277	          0.98381205	          0.00809285	         38.61219786	          7.22361408	          9.51845751	         24.76875908	          6.48678578	         -0.20075554	        -60.83598386	        -16.41943065	         -6.26306221	         -9.58222328	          3.81514782	          7.89328083	         -2.29583692	          1.57288121	         -0.68033616	         -8.86438230	        -10.81402761	         -2.60634901	          1.40739951	          4.19942530	        -11.22771353	         62.03920351	        149.89062068	         86.51662706	         86.51662706	
          0.01179744	        -11.03380704	         -0.22383735	         -1.75807205	          0.03992719	          0.97992932	          0.00825424	         38.92785699	          6.93351491	          9.57152245	         24.51781762	          6.61521908	         -0.13742972	        -59.99712892	        -17.36749692	         -5.90340439	         -8.91978364	          3.76556255	          7.17737392	         -2.53179129	          1.54571568	         -0.89306637	         -7.83990198	        -10.75608839	         -2.95755145	          3.47164237	          5.32781517	        -10.53981125	         57.58794943	        150.66488584	         86.51662706	         86.51662706	
          0.01769617	        -10.72910898	         -0.21261473	         -1.80694136	          0.05997845	          0.97577025	          0.00840458	         39.29016605	          6.61725137	          9.64615355	         24.25709754	          6.74723537	         -0.07207839	        -59.06332762	        -19.26708682	         -5.55368694	         -7.79436516	          3.70916607	          6.53655478	         -2.77263813	          1.52960103	         -1.08026943	         -6.69772624	        -10.68008545	         -3.30115274	          5.56136036	          6.47315119	         -9.86426907	         52.90533950	        151.35906298	         86.51662706	         86.51662706	
          0.02359489	        -10.41835188	         -0.21025053	         -1.85018213	          0.08008284	          0.97143457	          0.00856600	         39.68748872	          6.25511229	          9.69457542	         23.90578910	          6.91681523	          0.04832414	        -58.01547672	        -21.68749005	         -5.21788822	         -6.15502862	          3.65285894	          6.02506333	         -3.00436996	          1.52004220	         -1.23913169	         -5.41077096	        -10.58965550	         -3.62303631	          7.66101846	          7.63051427	         -9.21816556	         47.92378115	        151.95955871	         86.51662706	         86.51662706	
          0.02949361	        -10.11922769	         -0.20697140	         -1.87384239	          0.10027072	          0.96702001	          0.00874860	         40.10972002	          5.82721779	          9.62856776	         23.33899401	          7.12819670	          0.28286930	        -56.81889584	        -23.85804323	         -4.88059979	         -4.10267897	          3.60526786	          5.47111815	         -3.19855634	          1.50057939	         -1.36791933	         -3.95147809	        -10.48890104	         -3.90511542	          9.74475096	          8.79235932	         -8.62456204	         42.56484520	        152.45441495	         86.51662706	         86.51662706	
          0.03539233	         -9.83152012	         -0.19464383	         -1.88203653	          0.12051804	          0.96257376	          0.00892971	         40.54209165	          5.34877015	          9.44754473	         22.58980713	          7.35563827	          0.59801187	        -55.47301464	        -25.74304464	         -4.54198477	         -2.01201640	          3.57322379	          4.85986698	         -3.35915970	          1.46582363	         -1.46344316	         -2.30160830	        -10.37334364	         -4.15038067	         11.81491519	          9.94522352	         -8.08875500	         36.78701037	        152.84230077	         86.51662706	         86.51662706	
          0.04129105	         -9.55154468	         -0.17385279	         -1.88157154	          0.14078641	          0.95813282	          0.00909440	         40.97234237	          4.83547861	          9.17939161	         21.71373920	          7.58262485	          0.94700287	        -53.99111385	        -27.40720344	         -4.21071820	         -0.00143052	          3.56317181	          4.23327891	         -3.49780345	          1.41889196	         -1.52116127	         -0.44677849	        -10.23939755	         -4.36673030	         13.87835233	         11.07514312	         -7.61520990	         30.56573116	        153.12524645	         86.51662706	         86.51662706	
          0.04718978	         -9.27775137	         -0.14717269	         -1.87824052	          0.16103753	          0.95372403	          0.00923518	         41.39507044	          4.30222970	          8.85632511	         20.76197153	          7.79761464	          1.29116155	        -52.39393613	        -28.90850824	         -3.90170071	          1.83394158	          3.58216544	          3.61930550	         -3.62452968	          1.36322921	         -1.53911147	          1.61695012	        -10.08785379	         -4.56515025	         15.94081871	         12.16983282	         -7.20743017	         23.90089876	        153.30692772	         86.51662706	         86.51662706	
          0.05308850	         -9.01158255	         -0.11910130	         -1.87409474	          0.18126514	          0.94938455	          0.00935125	         41.80674052	          3.75524344	          8.48947418	         19.74975022	          7.99753316	          1.61824135	        -50.70062637	        -30.26306953	         -3.63411063	          3.47612681	          3.63893486	          3.03900141	         -3.74134230	          1.30303962	         -1.51941532	          3.87616845	         -9.92479171	         -4.75269048	         17.99850874	         13.21747814	         -6.86875167	         16.82300123	        153.39048995	         86.51662706	         86.51662706	
          0.05898722	         -8.75988530	         -0.09202357	         -1.86978132	          0.20148621	          0.94514598	          0.00943712	         42.21057181	          3.19989973	          8.07881560	         18.67408860	          8.17490112	          1.93049726	        -48.93282058	        -31.44743164	         -3.42718315	          4.89486451	          3.74345402	          2.51804964	         -3.84023519	          1.24109084	         -1.46591112	          6.29319936	         -9.76122132	         -4.92323850	         20.04023932	         14.20660718	         -6.60134871	          9.41376713	        153.38040179	         86.51662706	         86.51662706	
          0.06488594	         -8.53019213	         -0.06481208	         -1.86615469	          0.22170596	          0.94105789	          0.00948895	         42.61326657	          2.64669207	          7.63238852	         17.54201928	          8.32258663	          2.23426529	        -47.11228402	        -32.44461264	         -3.29917786	          6.03779849	          3.90325571	          2.05838175	         -3.91554675	          1.17587980	         -1.38381963	          8.80613934	         -9.61224218	         -5.04929888	         22.05303166	         15.12693527	         -6.40491879	          1.82276213	        153.28257664	         86.51662706	         86.51662706	
          0.07078466	         -8.33083184	         -0.03467957	         -1.86259469	          0.24193921	          0.93719944	          0.00950816	         43.01914885	          2.10449338	          7.15164453	         16.35194105	          8.43740248	          2.53474556	        -45.25115665	        -33.24043053	         -3.25050245	          6.92636621	          4.12112536	          1.65669435	         -3.96048312	          1.10330550	         -1.28210184	         11.32901684	         -9.49010022	         -5.08309066	         24.01670842	         15.96934036	         -6.27567947	         -5.74520333	        153.10289661	         86.51662706	         86.51662706	
